<?xml version="1.0" encoding="UTF-8"?>
<!DOCTYPE svg PUBLIC "-//W3C//DTD SVG 1.1//EN" "http://www.w3.org/Graphics/SVG/1.1/DTD/svg11.dtd">
<svg xmlns="http://www.w3.org/2000/svg" version="1.1" width="150px" height="150px" style="shape-rendering:geometricPrecision; text-rendering:geometricPrecision; image-rendering:optimizeQuality; fill-rule:evenodd; clip-rule:evenodd" xmlns:xlink="http://www.w3.org/1999/xlink">
<g><path style="opacity:0.004" fill="#fefffe" d="M 119.5,0.5 C 120.833,1.16667 120.833,1.16667 119.5,0.5 Z"/></g>
<g><path style="opacity:0.004" fill="#fefffe" d="M 41.5,2.5 C 42.8333,3.16667 42.8333,3.16667 41.5,2.5 Z"/></g>
<g><path style="opacity:0.004" fill="#fefffe" d="M 74.5,2.5 C 75.8333,3.16667 75.8333,3.16667 74.5,2.5 Z"/></g>
<g><path style="opacity:0.004" fill="#fefffe" d="M 50.5,5.5 C 51.8333,6.16667 51.8333,6.16667 50.5,5.5 Z"/></g>
<g><path style="opacity:0.004" fill="#fefffe" d="M 80.5,5.5 C 81.8333,6.16667 81.8333,6.16667 80.5,5.5 Z"/></g>
<g><path style="opacity:0.004" fill="#fefffe" d="M 83.5,5.5 C 84.8333,6.16667 84.8333,6.16667 83.5,5.5 Z"/></g>
<g><path style="opacity:0.004" fill="#fefffe" d="M 68.5,7.5 C 69.8333,8.16667 69.8333,8.16667 68.5,7.5 Z"/></g>
<g><path style="opacity:0.004" fill="#fefffe" d="M 110.5,8.5 C 111.833,9.16667 111.833,9.16667 110.5,8.5 Z"/></g>
<g><path style="opacity:0.004" fill="#fefffe" d="M 134.5,13.5 C 135.833,14.1667 135.833,14.1667 134.5,13.5 Z"/></g>
<g><path style="opacity:0.004" fill="#fefffe" d="M 92.5,16.5 C 93.8333,17.1667 93.8333,17.1667 92.5,16.5 Z"/></g>
<g><path style="opacity:0.004" fill="#fefffe" d="M 59.5,17.5 C 60.8333,18.1667 60.8333,18.1667 59.5,17.5 Z"/></g>
<g><path style="opacity:0.004" fill="#fefffe" d="M 101.5,21.5 C 102.833,22.1667 102.833,22.1667 101.5,21.5 Z"/></g>
<g><path style="opacity:0.004" fill="#fefffe" d="M 29.5,22.5 C 30.8333,23.1667 30.8333,23.1667 29.5,22.5 Z"/></g>
<g><path style="opacity:0.004" fill="#fefffe" d="M 83.5,23.5 C 84.8333,24.1667 84.8333,24.1667 83.5,23.5 Z"/></g>
<g><path style="opacity:0.004" fill="#fefffe" d="M 86.5,23.5 C 87.8333,24.1667 87.8333,24.1667 86.5,23.5 Z"/></g>
<g><path style="opacity:0.004" fill="#fefffe" d="M 23.5,24.5 C 24.8333,25.1667 24.8333,25.1667 23.5,24.5 Z"/></g>
<g><path style="opacity:0.004" fill="#fefffe" d="M 56.5,24.5 C 57.8333,25.1667 57.8333,25.1667 56.5,24.5 Z"/></g>
<g><path style="opacity:0.043" fill="#b4f4dd" d="M 114.5,26.5 C 110.833,25.1667 107.167,25.1667 103.5,26.5C 107.208,22.6497 110.874,22.6497 114.5,26.5 Z"/></g>
<g><path style="opacity:0.075" fill="#e9f4ff" d="M 38.5,25.5 C 37.8333,26.8333 36.8333,27.8333 35.5,28.5C 35.5,26.5 36.5,25.5 38.5,25.5 Z"/></g>
<g><path style="opacity:0.718" fill="#9ea6dd" d="M 38.5,25.5 C 40.9664,24.3659 43.633,24.1993 46.5,25C 48.5444,25.4983 49.8777,26.665 50.5,28.5C 48.8333,27.8333 47.1667,27.1667 45.5,26.5C 43.3926,25.5318 41.0593,25.1984 38.5,25.5 Z"/></g>
<g><path style="opacity:1" fill="#03bf61" d="M 114.5,30.5 C 114.66,32.1992 114.494,33.8659 114,35.5C 111.833,36.3333 110.333,37.8333 109.5,40C 107.567,40.2511 105.734,40.7511 104,41.5C 103.25,40.8742 102.416,40.3742 101.5,40C 102.305,38.0283 103.639,36.5283 105.5,35.5C 102.942,34.7825 102.275,33.4491 103.5,31.5C 106.82,26.5931 110.487,26.2598 114.5,30.5 Z"/></g>
<g><path style="opacity:0.522" fill="#adb3ea" d="M 35.5,28.5 C 34.925,30.4113 33.925,32.078 32.5,33.5C 32.1667,33.5 31.8333,33.5 31.5,33.5C 32.0798,31.2512 33.4131,29.5846 35.5,28.5 Z"/></g>
<g><path style="opacity:1" fill="#2a3ee4" d="M 45.5,26.5 C 47.1667,27.1667 48.8333,27.8333 50.5,28.5C 52.6727,31.2222 53.0061,34.2222 51.5,37.5C 48.795,39.5116 46.1283,41.5116 43.5,43.5C 42.4168,43.5394 41.4168,43.8728 40.5,44.5C 39.8333,46.1667 39.1667,47.8333 38.5,49.5C 37.8076,48.9747 37.3076,48.3081 37,47.5C 36.6667,49.5 36.3333,51.5 36,53.5C 34.2495,54.2225 32.7495,55.2225 31.5,56.5C 29.9519,56.1788 29.2852,55.1788 29.5,53.5C 25.3065,53.6383 22.9732,51.6383 22.5,47.5C 24.8967,48.368 27.3967,49.0347 30,49.5C 36.7418,48.6245 36.9085,47.9578 30.5,47.5C 30.6495,46.448 30.4828,45.448 30,44.5C 28.1598,45.8331 27.6598,45.6665 28.5,44C 27.244,43.5831 26.5774,42.7498 26.5,41.5C 26.5,40.8333 26.8333,40.5 27.5,40.5C 30.1386,38.8442 32.8053,37.1776 35.5,35.5C 36.2304,33.6587 36.8971,31.8254 37.5,30C 39.1161,29.3848 40.4495,28.3848 41.5,27C 42.7932,26.51 44.1266,26.3433 45.5,26.5 Z"/></g>
<g><path style="opacity:0.765" fill="#f5aba9" d="M 78.5,29.5 C 75.3623,28.3187 72.3623,28.3187 69.5,29.5C 65.8333,32.8333 62.1667,36.1667 58.5,39.5C 61.8405,33.9934 66.3405,29.6601 72,26.5C 74.5332,26.9496 76.6998,27.9496 78.5,29.5 Z"/></g>
<g><path style="opacity:0.737" fill="#9deac7" d="M 103.5,26.5 C 100.143,30.852 96.8093,35.1853 93.5,39.5C 92.8333,39.5 92.1667,39.5 91.5,39.5C 93.7833,36.0437 96.2833,32.7104 99,29.5C 100.129,27.8588 101.629,26.8588 103.5,26.5 Z"/></g>
<g><path style="opacity:0.004" fill="#fefffe" d="M 134.5,32.5 C 135.833,33.1667 135.833,33.1667 134.5,32.5 Z"/></g>
<g><path style="opacity:1" fill="#37b576" d="M 114.5,26.5 C 116.262,27.2623 117.262,28.5956 117.5,30.5C 117.662,32.5273 117.495,34.5273 117,36.5C 115.277,38.7167 113.777,41.05 112.5,43.5C 110.058,46.729 107.392,49.729 104.5,52.5C 104.5,51.8333 104.5,51.1667 104.5,50.5C 104.238,49.0222 104.571,47.6888 105.5,46.5C 106.086,46.7093 106.586,47.0426 107,47.5C 107.49,46.2068 107.657,44.8734 107.5,43.5C 108.833,43.5 110.167,43.5 111.5,43.5C 110.789,40.1362 111.956,37.8029 115,36.5C 115.789,34.2884 115.622,32.2884 114.5,30.5C 110.487,26.2598 106.82,26.5931 103.5,31.5C 102.504,31.4142 101.671,31.7476 101,32.5C 99.8486,36.2738 97.3486,38.6072 93.5,39.5C 96.8093,35.1853 100.143,30.852 103.5,26.5C 107.167,25.1667 110.833,25.1667 114.5,26.5 Z"/></g>
<g><path style="opacity:0.004" fill="#fefffe" d="M 140.5,34.5 C 141.833,35.1667 141.833,35.1667 140.5,34.5 Z"/></g>
<g><path style="opacity:1" fill="#2f3fca" d="M 38.5,25.5 C 41.0593,25.1984 43.3926,25.5318 45.5,26.5C 44.1266,26.3433 42.7932,26.51 41.5,27C 40.4495,28.3848 39.1161,29.3848 37.5,30C 36.8971,31.8254 36.2304,33.6587 35.5,35.5C 32.8053,37.1776 30.1386,38.8442 27.5,40.5C 27.5,39.8333 27.5,39.1667 27.5,38.5C 30.1894,37.8106 31.8561,36.144 32.5,33.5C 33.925,32.078 34.925,30.4113 35.5,28.5C 36.8333,27.8333 37.8333,26.8333 38.5,25.5 Z"/></g>
<g><path style="opacity:0.004" fill="#fefffe" d="M 137.5,35.5 C 138.833,36.1667 138.833,36.1667 137.5,35.5 Z"/></g>
<g><path style="opacity:1" fill="#6869c9" d="M 31.5,33.5 C 31.8333,33.5 32.1667,33.5 32.5,33.5C 31.8561,36.144 30.1894,37.8106 27.5,38.5C 28.0798,36.2512 29.4131,34.5846 31.5,33.5 Z"/></g>
<g><path style="opacity:0.914" fill="#e28481" d="M 69.5,29.5 C 72.3623,28.3187 75.3623,28.3187 78.5,29.5C 82.1705,32.2493 83.3372,35.9159 82,40.5C 81.6174,41.056 81.1174,41.3893 80.5,41.5C 80.6646,38.4816 80.498,35.4816 80,32.5C 76.7939,30.4808 73.2939,29.4808 69.5,29.5 Z"/></g>
<g><path style="opacity:0.004" fill="#fefffe" d="M 131.5,36.5 C 132.833,37.1667 132.833,37.1667 131.5,36.5 Z"/></g>
<g><path style="opacity:0.004" fill="#fdfffe" d="M 134.5,37.5 C 135.833,38.1667 135.833,38.1667 134.5,37.5 Z"/></g>
<g><path style="opacity:1" fill="#fb312f" d="M 78.5,42.5 C 77.209,42.2627 76.209,42.596 75.5,43.5C 74.2058,44.2899 73.0391,45.2899 72,46.5C 71.5518,44.7756 70.7185,44.109 69.5,44.5C 72.2073,39.4323 70.5406,38.099 64.5,40.5C 64.1667,39.8333 63.8333,39.1667 63.5,38.5C 65.3964,33.9275 68.7298,31.2608 73.5,30.5C 72.6885,34.5498 74.1885,37.2165 78,38.5C 78.49,39.7932 78.6567,41.1266 78.5,42.5 Z"/></g>
<g><path style="opacity:1" fill="#03be63" d="M 114.5,30.5 C 115.622,32.2884 115.789,34.2884 115,36.5C 111.956,37.8029 110.789,40.1362 111.5,43.5C 110.167,43.5 108.833,43.5 107.5,43.5C 107.657,44.8734 107.49,46.2068 107,47.5C 106.586,47.0426 106.086,46.7093 105.5,46.5C 104.571,47.6888 104.238,49.0222 104.5,50.5C 101.924,50.4679 99.5909,51.1346 97.5,52.5C 97.313,50.4357 96.813,48.4357 96,46.5C 94.6124,47.5536 93.1124,47.7203 91.5,47C 94.938,45.5551 95.2714,43.7217 92.5,41.5C 92.8333,40.8333 93.1667,40.1667 93.5,39.5C 97.3486,38.6072 99.8486,36.2738 101,32.5C 101.671,31.7476 102.504,31.4142 103.5,31.5C 102.275,33.4491 102.942,34.7825 105.5,35.5C 103.639,36.5283 102.305,38.0283 101.5,40C 102.416,40.3742 103.25,40.8742 104,41.5C 105.734,40.7511 107.567,40.2511 109.5,40C 110.333,37.8333 111.833,36.3333 114,35.5C 114.494,33.8659 114.66,32.1992 114.5,30.5 Z"/></g>
<g><path style="opacity:0.11" fill="#b8f5da" d="M 117.5,30.5 C 119.507,36.1644 117.841,40.4977 112.5,43.5C 113.777,41.05 115.277,38.7167 117,36.5C 117.495,34.5273 117.662,32.5273 117.5,30.5 Z"/></g>
<g><path style="opacity:0.004" fill="#fefffe" d="M 143.5,40.5 C 144.833,41.1667 144.833,41.1667 143.5,40.5 Z"/></g>
<g><path style="opacity:0.769" fill="#717ad1" d="M 27.5,38.5 C 27.5,39.1667 27.5,39.8333 27.5,40.5C 26.8333,40.5 26.5,40.8333 26.5,41.5C 24.8333,42.8333 23.1667,44.1667 21.5,45.5C 22.7573,42.5726 24.7573,40.2393 27.5,38.5 Z"/></g>
<g><path style="opacity:1" fill="#686bca" d="M 51.5,37.5 C 48.8482,41.4819 45.8482,45.1486 42.5,48.5C 42.6287,46.7839 42.962,45.1172 43.5,43.5C 46.1283,41.5116 48.795,39.5116 51.5,37.5 Z"/></g>
<g><path style="opacity:1" fill="#ea7e76" d="M 80.5,41.5 C 79.5806,44.0892 77.914,46.0892 75.5,47.5C 75.5,46.1667 75.5,44.8333 75.5,43.5C 76.209,42.596 77.209,42.2627 78.5,42.5C 79.1667,42.1667 79.8333,41.8333 80.5,41.5 Z"/></g>
<g><path style="opacity:0.322" fill="#91e5c3" d="M 91.5,39.5 C 90.2498,41.9324 88.7498,44.2657 87,46.5C 86.1841,47.8228 85.0174,48.4894 83.5,48.5C 85.4719,44.8949 88.1385,41.8949 91.5,39.5 Z"/></g>
<g><path style="opacity:0.929" fill="#e17372" d="M 58.5,39.5 C 56.4589,45.2731 52.7922,49.6064 47.5,52.5C 50.7978,47.8677 54.4645,43.5344 58.5,39.5 Z"/></g>
<g><path style="opacity:1" fill="#02bf60" d="M 92.5,41.5 C 95.2714,43.7217 94.938,45.5551 91.5,47C 93.1124,47.7203 94.6124,47.5536 96,46.5C 96.813,48.4357 97.313,50.4357 97.5,52.5C 97.8432,54.4832 97.1765,55.8166 95.5,56.5C 97.5396,49.3573 95.8729,48.1906 90.5,53C 91.3081,53.3076 91.9747,53.8076 92.5,54.5C 91.2094,55.8248 89.8761,57.1581 88.5,58.5C 87.8333,57.8333 87.1667,57.1667 86.5,56.5C 85.549,57.3256 84.549,57.4922 83.5,57C 84.3443,54.801 85.3443,52.301 86.5,49.5C 88.1153,46.5505 90.1153,43.8838 92.5,41.5 Z"/></g>
<g><path style="opacity:0.004" fill="#fefffe" d="M 134.5,46.5 C 135.833,47.1667 135.833,47.1667 134.5,46.5 Z"/></g>
<g><path style="opacity:1" fill="#233ddd" d="M 26.5,41.5 C 26.5774,42.7498 27.244,43.5831 28.5,44C 27.6598,45.6665 28.1598,45.8331 30,44.5C 30.4828,45.448 30.6495,46.448 30.5,47.5C 36.9085,47.9578 36.7418,48.6245 30,49.5C 27.3967,49.0347 24.8967,48.368 22.5,47.5C 22.9732,51.6383 25.3065,53.6383 29.5,53.5C 29.2852,55.1788 29.9519,56.1788 31.5,56.5C 29.2446,58.3803 26.5779,59.3803 23.5,59.5C 22.8333,58.8333 22.1667,58.1667 21.5,57.5C 20.2337,53.5323 20.2337,49.5323 21.5,45.5C 23.1667,44.1667 24.8333,42.8333 26.5,41.5 Z"/></g>
<g><path style="opacity:1" fill="#474fca" d="M 43.5,43.5 C 42.962,45.1172 42.6287,46.7839 42.5,48.5C 39.4715,51.859 36.4715,55.1924 33.5,58.5C 31.1743,59.1511 28.8409,59.8178 26.5,60.5C 25.2739,60.4805 24.2739,60.1471 23.5,59.5C 26.5779,59.3803 29.2446,58.3803 31.5,56.5C 32.7495,55.2225 34.2495,54.2225 36,53.5C 36.3333,51.5 36.6667,49.5 37,47.5C 37.3076,48.3081 37.8076,48.9747 38.5,49.5C 39.1667,47.8333 39.8333,46.1667 40.5,44.5C 41.4168,43.8728 42.4168,43.5394 43.5,43.5 Z"/></g>
<g><path style="opacity:1" fill="#f43737" d="M 69.5,29.5 C 73.2939,29.4808 76.7939,30.4808 80,32.5C 80.498,35.4816 80.6646,38.4816 80.5,41.5C 79.8333,41.8333 79.1667,42.1667 78.5,42.5C 78.6567,41.1266 78.49,39.7932 78,38.5C 74.1885,37.2165 72.6885,34.5498 73.5,30.5C 68.7298,31.2608 65.3964,33.9275 63.5,38.5C 63.8333,39.1667 64.1667,39.8333 64.5,40.5C 70.5406,38.099 72.2073,39.4323 69.5,44.5C 70.7185,44.109 71.5518,44.7756 72,46.5C 73.0391,45.2899 74.2058,44.2899 75.5,43.5C 75.5,44.8333 75.5,46.1667 75.5,47.5C 75.5,48.1667 75.1667,48.5 74.5,48.5C 73.1805,49.9418 71.5138,50.6085 69.5,50.5C 69.5,51.8333 69.5,53.1667 69.5,54.5C 68.5,54.5 67.5,54.5 66.5,54.5C 66.0283,57.8153 64.195,60.1486 61,61.5C 59.6839,62.9743 58.6839,64.641 58,66.5C 57.5172,65.552 57.3505,64.552 57.5,63.5C 58.6018,60.6532 60.6018,58.6532 63.5,57.5C 64.6808,55.802 64.6808,54.1353 63.5,52.5C 61.8208,53.782 59.9874,54.782 58,55.5C 57.9953,52.7708 56.8287,50.7708 54.5,49.5C 53.0658,51.9418 51.0658,53.6084 48.5,54.5C 46.8333,55.8333 45.1667,57.1667 43.5,58.5C 43.5,57.8333 43.5,57.1667 43.5,56.5C 44.5,54.8333 45.8333,53.5 47.5,52.5C 52.7922,49.6064 56.4589,45.2731 58.5,39.5C 62.1667,36.1667 65.8333,32.8333 69.5,29.5 Z"/></g>
<g><path style="opacity:0.969" fill="#ec8b87" d="M 74.5,48.5 C 73.5806,51.0892 71.914,53.0892 69.5,54.5C 69.5,53.1667 69.5,51.8333 69.5,50.5C 71.5138,50.6085 73.1805,49.9418 74.5,48.5 Z"/></g>
<g><path style="opacity:0.369" fill="#b0ebce" d="M 83.5,48.5 C 82.9202,50.7488 81.5869,52.4154 79.5,53.5C 80.0798,51.2512 81.4131,49.5846 83.5,48.5 Z"/></g>
<g><path style="opacity:1" fill="#3647b1" d="M 21.5,45.5 C 20.2337,49.5323 20.2337,53.5323 21.5,57.5C 20.8333,57.5 20.1667,57.5 19.5,57.5C 18.7347,54.9039 18.4013,52.2372 18.5,49.5C 18.7376,47.5956 19.7376,46.2623 21.5,45.5 Z"/></g>
<g><path style="opacity:1" fill="#2fb271" d="M 91.5,39.5 C 92.1667,39.5 92.8333,39.5 93.5,39.5C 93.1667,40.1667 92.8333,40.8333 92.5,41.5C 90.1153,43.8838 88.1153,46.5505 86.5,49.5C 82.1974,52.8402 78.5307,56.8402 75.5,61.5C 74.5084,61.3284 73.8417,61.6618 73.5,62.5C 72.8333,62.5 72.1667,62.5 71.5,62.5C 73.9588,59.1984 76.6255,56.1984 79.5,53.5C 81.5869,52.4154 82.9202,50.7488 83.5,48.5C 85.0174,48.4894 86.1841,47.8228 87,46.5C 88.7498,44.2657 90.2498,41.9324 91.5,39.5 Z"/></g>
<g><path style="opacity:1" fill="#fb322d" d="M 57.5,63.5 C 56.596,64.209 56.2627,65.209 56.5,66.5C 55.0413,66.5674 53.7079,66.2341 52.5,65.5C 54.8684,63.0351 55.8684,60.0351 55.5,56.5C 53.2646,56.2053 51.2646,56.5386 49.5,57.5C 48.7611,57.631 48.0944,57.4643 47.5,57C 48.2524,56.3292 48.5858,55.4959 48.5,54.5C 51.0658,53.6084 53.0658,51.9418 54.5,49.5C 56.8287,50.7708 57.9953,52.7708 58,55.5C 59.9874,54.782 61.8208,53.782 63.5,52.5C 64.6808,54.1353 64.6808,55.802 63.5,57.5C 60.6018,58.6532 58.6018,60.6532 57.5,63.5 Z"/></g>
<g><path style="opacity:1" fill="#04bd62" d="M 86.5,49.5 C 85.3443,52.301 84.3443,54.801 83.5,57C 84.549,57.4922 85.549,57.3256 86.5,56.5C 87.1667,57.1667 87.8333,57.8333 88.5,58.5C 89.8761,57.1581 91.2094,55.8248 92.5,54.5C 91.9747,53.8076 91.3081,53.3076 90.5,53C 95.8729,48.1906 97.5396,49.3573 95.5,56.5C 91.8177,59.1874 89.651,62.8541 89,67.5C 86.5835,69.078 84.7502,71.078 83.5,73.5C 83.1667,73.5 82.8333,73.5 82.5,73.5C 81.7343,69.9184 81.7343,66.4184 82.5,63C 80.5051,60.4495 78.1717,59.9495 75.5,61.5C 78.5307,56.8402 82.1974,52.8402 86.5,49.5 Z"/></g>
<g><path style="opacity:1" fill="#e16768" d="M 120.5,54.5 C 120.833,55.1667 121.167,55.8333 121.5,56.5C 116.927,55.7688 112.927,56.7688 109.5,59.5C 109.5,58.8333 109.5,58.1667 109.5,57.5C 112.449,53.6555 116.116,52.6555 120.5,54.5 Z"/></g>
<g><path style="opacity:0.051" fill="#cad8fa" d="M 18.5,49.5 C 18.4013,52.2372 18.7347,54.9039 19.5,57.5C 17.9735,56.5081 17.3068,55.0081 17.5,53C 17.5143,51.6153 17.8476,50.4486 18.5,49.5 Z"/></g>
<g><path style="opacity:0.984" fill="#61c594" d="M 104.5,52.5 C 102.471,54.8585 100.471,57.1918 98.5,59.5C 98.8844,57.0706 99.551,54.7373 100.5,52.5C 101.833,52.5 103.167,52.5 104.5,52.5 Z"/></g>
<g><path style="opacity:0.004" fill="#fefffe" d="M 108.5,57.5 C 107.833,56.1667 107.833,56.1667 108.5,57.5 Z"/></g>
<g><path style="opacity:0.745" fill="#f0a59d" d="M 120.5,54.5 C 123.167,55.1667 124.833,56.8333 125.5,59.5C 124.5,58.8333 123.5,58.1667 122.5,57.5C 121.833,57.5 121.5,57.1667 121.5,56.5C 121.167,55.8333 120.833,55.1667 120.5,54.5 Z"/></g>
<g><path style="opacity:0.004" fill="#fefffe" d="M 143.5,57.5 C 144.833,58.1667 144.833,58.1667 143.5,57.5 Z"/></g>
<g><path style="opacity:0.443" fill="#f9b5b2" d="M 43.5,56.5 C 43.5,57.1667 43.5,57.8333 43.5,58.5C 42.1667,59.5 40.8333,60.5 39.5,61.5C 40.0798,59.2512 41.4131,57.5846 43.5,56.5 Z"/></g>
<g><path style="opacity:1" fill="#32bb73" d="M 104.5,50.5 C 104.5,51.1667 104.5,51.8333 104.5,52.5C 103.167,52.5 101.833,52.5 100.5,52.5C 99.551,54.7373 98.8844,57.0706 98.5,59.5C 93.1754,66.1569 87.5087,72.4903 81.5,78.5C 81.3915,76.4862 82.0582,74.8195 83.5,73.5C 84.7502,71.078 86.5835,69.078 89,67.5C 89.651,62.8541 91.8177,59.1874 95.5,56.5C 97.1765,55.8166 97.8432,54.4832 97.5,52.5C 99.5909,51.1346 101.924,50.4679 104.5,50.5 Z"/></g>
<g><path style="opacity:0.341" fill="#969cdd" d="M 19.5,57.5 C 20.1667,57.5 20.8333,57.5 21.5,57.5C 22.1667,58.1667 22.8333,58.8333 23.5,59.5C 24.2739,60.1471 25.2739,60.4805 26.5,60.5C 28.8409,59.8178 31.1743,59.1511 33.5,58.5C 31.8339,60.8284 29.5005,61.8284 26.5,61.5C 23.1815,61.841 20.8482,60.5076 19.5,57.5 Z"/></g>
<g><path style="opacity:0.004" fill="#fefffe" d="M 35.5,60.5 C 36.8333,61.1667 36.8333,61.1667 35.5,60.5 Z"/></g>
<g><path style="opacity:0.776" fill="#ef8581" d="M 69.5,54.5 C 64.8431,60.489 59.8431,66.1557 54.5,71.5C 55.1667,69.8333 55.8333,68.1667 56.5,66.5C 56.2627,65.209 56.596,64.209 57.5,63.5C 57.3505,64.552 57.5172,65.552 58,66.5C 58.6839,64.641 59.6839,62.9743 61,61.5C 64.195,60.1486 66.0283,57.8153 66.5,54.5C 67.5,54.5 68.5,54.5 69.5,54.5 Z"/></g>
<g><path style="opacity:1" fill="#f43533" d="M 48.5,54.5 C 48.5858,55.4959 48.2524,56.3292 47.5,57C 48.0944,57.4643 48.7611,57.631 49.5,57.5C 49.5,58.8333 49.5,60.1667 49.5,61.5C 48.1779,61.33 47.0113,61.6634 46,62.5C 45.6037,67.0903 43.437,69.0903 39.5,68.5C 37.1667,69.8333 34.8333,71.1667 32.5,72.5C 34.5798,70.4268 36.2464,68.0934 37.5,65.5C 37.5,64.8333 37.5,64.1667 37.5,63.5C 37.8333,62.5 38.5,61.8333 39.5,61.5C 40.8333,60.5 42.1667,59.5 43.5,58.5C 45.1667,57.1667 46.8333,55.8333 48.5,54.5 Z"/></g>
<g><path style="opacity:1" fill="#02bf62" d="M 82.5,73.5 C 81.1805,74.9418 79.5138,75.6085 77.5,75.5C 78.8992,70.6204 78.8992,68.9537 77.5,70.5C 73.0678,69.3976 71.7344,66.7309 73.5,62.5C 73.8417,61.6618 74.5084,61.3284 75.5,61.5C 78.1717,59.9495 80.5051,60.4495 82.5,63C 81.7343,66.4184 81.7343,69.9184 82.5,73.5 Z"/></g>
<g><path style="opacity:1" fill="#f73431" d="M 121.5,56.5 C 121.5,57.1667 121.833,57.5 122.5,57.5C 123.468,60.4453 123.634,63.4453 123,66.5C 121.158,68.8636 119.325,71.1969 117.5,73.5C 116.115,72.4264 114.949,71.0931 114,69.5C 113.694,65.664 113.528,61.9973 113.5,58.5C 110.417,60.4172 108.25,63.0838 107,66.5C 106.329,67.2524 105.496,67.5858 104.5,67.5C 105.11,66.609 105.443,65.609 105.5,64.5C 106.124,62.246 107.457,60.5794 109.5,59.5C 112.927,56.7688 116.927,55.7688 121.5,56.5 Z"/></g>
<g><path style="opacity:1" fill="#fc3130" d="M 52.5,65.5 C 51.3367,68.2375 49.5033,69.2375 47,68.5C 45.1758,73.8738 41.6758,76.5405 36.5,76.5C 35.9094,75.8485 35.2427,75.1818 34.5,74.5C 36.1128,73.5726 37.7795,72.7393 39.5,72C 38.3157,70.8545 38.3157,69.6879 39.5,68.5C 43.437,69.0903 45.6037,67.0903 46,62.5C 47.0113,61.6634 48.1779,61.33 49.5,61.5C 49.5,60.1667 49.5,58.8333 49.5,57.5C 51.2646,56.5386 53.2646,56.2053 55.5,56.5C 55.8684,60.0351 54.8684,63.0351 52.5,65.5 Z"/></g>
<g><path style="opacity:0.004" fill="#fefffe" d="M 62.5,64.5 C 63.8333,65.1667 63.8333,65.1667 62.5,64.5 Z"/></g>
<g><path style="opacity:0.745" fill="#f4a8a5" d="M 108.5,57.5 C 108.833,57.5 109.167,57.5 109.5,57.5C 109.5,58.1667 109.5,58.8333 109.5,59.5C 107.457,60.5794 106.124,62.246 105.5,64.5C 98.1667,72.1667 90.8333,79.8333 83.5,87.5C 83.5,87.1667 83.5,86.8333 83.5,86.5C 92.2072,77.1283 100.541,67.4616 108.5,57.5 Z"/></g>
<g><path style="opacity:1" fill="#fc2f2f" d="M 117.5,73.5 C 116.432,74.4345 115.099,74.7678 113.5,74.5C 112.069,72.8113 111.236,70.8113 111,68.5C 109.383,69.8513 108.216,71.518 107.5,73.5C 105.167,76.1667 102.833,76.1667 100.5,73.5C 101.853,72.4763 102.52,71.143 102.5,69.5C 102.833,68.5 103.5,67.8333 104.5,67.5C 105.496,67.5858 106.329,67.2524 107,66.5C 108.25,63.0838 110.417,60.4172 113.5,58.5C 113.528,61.9973 113.694,65.664 114,69.5C 114.949,71.0931 116.115,72.4264 117.5,73.5 Z"/></g>
<g><path style="opacity:0.004" fill="#fefffe" d="M 20.5,68.5 C 21.8333,69.1667 21.8333,69.1667 20.5,68.5 Z"/></g>
<g><path style="opacity:0.957" fill="#e56966" d="M 122.5,57.5 C 123.5,58.1667 124.5,58.8333 125.5,59.5C 127.532,64.5143 126.199,68.5143 121.5,71.5C 119.738,72.2623 118.738,73.5956 118.5,75.5C 118.5,76.1667 118.167,76.5 117.5,76.5C 116.5,76.8333 115.833,77.5 115.5,78.5C 113.234,82.4356 110.234,85.7689 106.5,88.5C 106.674,86.139 107.007,83.8056 107.5,81.5C 111.55,81.1284 113.55,78.7951 113.5,74.5C 115.099,74.7678 116.432,74.4345 117.5,73.5C 119.325,71.1969 121.158,68.8636 123,66.5C 123.634,63.4453 123.468,60.4453 122.5,57.5 Z"/></g>
<g><path style="opacity:0.188" fill="#f9c0bf" d="M 37.5,63.5 C 37.5,64.1667 37.5,64.8333 37.5,65.5C 34.8333,67.8333 32.1667,70.1667 29.5,72.5C 31.4302,68.8998 34.0969,65.8998 37.5,63.5 Z"/></g>
<g><path style="opacity:0.004" fill="#fefffe" d="M 131.5,70.5 C 132.833,71.1667 132.833,71.1667 131.5,70.5 Z"/></g>
<g><path style="opacity:1" fill="#08bd63" d="M 71.5,62.5 C 72.1667,62.5 72.8333,62.5 73.5,62.5C 71.7344,66.7309 73.0678,69.3976 77.5,70.5C 78.8992,68.9537 78.8992,70.6204 77.5,75.5C 79.5138,75.6085 81.1805,74.9418 82.5,73.5C 82.8333,73.5 83.1667,73.5 83.5,73.5C 82.0582,74.8195 81.3915,76.4862 81.5,78.5C 81.1667,79.5 80.5,80.1667 79.5,80.5C 78.1667,80.5 76.8333,80.5 75.5,80.5C 75.5,81.5 75.5,82.5 75.5,83.5C 74.5,83.5 73.5,83.5 72.5,83.5C 74.0012,80.6413 73.0012,79.308 69.5,79.5C 68.0055,79.7092 66.8388,80.3759 66,81.5C 65.2904,80.0267 64.1238,79.3601 62.5,79.5C 61.014,83.6404 58.014,85.9737 53.5,86.5C 56.4153,83.6735 58.582,80.3402 60,76.5C 65.524,73.0606 69.3573,68.394 71.5,62.5 Z"/></g>
<g><path style="opacity:1" fill="#ef5550" d="M 51.5,73.5 C 51.5,74.1667 51.5,74.8333 51.5,75.5C 50.8333,76.8333 49.8333,77.8333 48.5,78.5C 47.8333,78.8333 47.1667,79.1667 46.5,79.5C 46.1667,77.5 45.8333,75.5 45.5,73.5C 47.5,73.5 49.5,73.5 51.5,73.5 Z"/></g>
<g><path style="opacity:0.035" fill="#fcc7bc" d="M 54.5,71.5 C 54.2624,73.4044 53.2624,74.7377 51.5,75.5C 51.5,74.8333 51.5,74.1667 51.5,73.5C 52.5,72.8333 53.5,72.1667 54.5,71.5 Z"/></g>
<g><path style="opacity:0.047" fill="#fdd5c6" d="M 121.5,71.5 C 121.262,73.4044 120.262,74.7377 118.5,75.5C 118.738,73.5956 119.738,72.2623 121.5,71.5 Z"/></g>
<g><path style="opacity:0.541" fill="#f7b6b3" d="M 29.5,72.5 C 28.5806,75.0892 26.914,77.0892 24.5,78.5C 25.4194,75.9108 27.086,73.9108 29.5,72.5 Z"/></g>
<g><path style="opacity:1" fill="#d94a4c" d="M 37.5,65.5 C 36.2464,68.0934 34.5798,70.4268 32.5,72.5C 30.9013,74.6038 29.068,76.6038 27,78.5C 26.2042,81.0385 26.3709,83.3718 27.5,85.5C 28.4752,87.5128 30.1419,88.8461 32.5,89.5C 34.1727,87.9137 36.1727,87.2471 38.5,87.5C 38.5,86.1667 38.5,84.8333 38.5,83.5C 39.5,83.5 40.5,83.5 41.5,83.5C 41.6495,84.552 41.4828,85.552 41,86.5C 39.3732,87.5323 38.2066,88.8656 37.5,90.5C 28.2181,92.2272 23.8847,88.2272 24.5,78.5C 26.914,77.0892 28.5806,75.0892 29.5,72.5C 32.1667,70.1667 34.8333,67.8333 37.5,65.5 Z"/></g>
<g><path style="opacity:1" fill="#fb2f31" d="M 39.5,68.5 C 38.3157,69.6879 38.3157,70.8545 39.5,72C 37.7795,72.7393 36.1128,73.5726 34.5,74.5C 35.2427,75.1818 35.9094,75.8485 36.5,76.5C 34.784,78.2083 32.784,79.5416 30.5,80.5C 34.4328,81.0657 35.7661,83.0657 34.5,86.5C 33.7065,86.9312 32.8732,87.2645 32,87.5C 30.6998,86.2927 29.1998,85.6261 27.5,85.5C 26.3709,83.3718 26.2042,81.0385 27,78.5C 29.068,76.6038 30.9013,74.6038 32.5,72.5C 34.8333,71.1667 37.1667,69.8333 39.5,68.5 Z"/></g>
<g><path style="opacity:1" fill="#f83334" d="M 52.5,65.5 C 53.7079,66.2341 55.0413,66.5674 56.5,66.5C 55.8333,68.1667 55.1667,69.8333 54.5,71.5C 53.5,72.1667 52.5,72.8333 51.5,73.5C 49.5,73.5 47.5,73.5 45.5,73.5C 45.8333,75.5 46.1667,77.5 46.5,79.5C 45.5,79.5 44.5,79.5 43.5,79.5C 43.8432,81.4832 43.1765,82.8166 41.5,83.5C 40.5,83.5 39.5,83.5 38.5,83.5C 38.5,84.8333 38.5,86.1667 38.5,87.5C 36.1727,87.2471 34.1727,87.9137 32.5,89.5C 30.1419,88.8461 28.4752,87.5128 27.5,85.5C 29.1998,85.6261 30.6998,86.2927 32,87.5C 32.8732,87.2645 33.7065,86.9312 34.5,86.5C 35.7661,83.0657 34.4328,81.0657 30.5,80.5C 32.784,79.5416 34.784,78.2083 36.5,76.5C 41.6758,76.5405 45.1758,73.8738 47,68.5C 49.5033,69.2375 51.3367,68.2375 52.5,65.5 Z"/></g>
<g><path style="opacity:0.004" fill="#fefffe" d="M 86.5,75.5 C 87.8333,76.1667 87.8333,76.1667 86.5,75.5 Z"/></g>
<g><path style="opacity:0.004" fill="#fefffe" d="M 137.5,75.5 C 138.833,76.1667 138.833,76.1667 137.5,75.5 Z"/></g>
<g><path style="opacity:1" fill="#fa3335" d="M 113.5,74.5 C 113.55,78.7951 111.55,81.1284 107.5,81.5C 106.432,80.5655 105.099,80.2322 103.5,80.5C 101.965,79.2121 100.299,79.2121 98.5,80.5C 94.6162,83.1243 90.6162,85.4577 86.5,87.5C 91.4908,81.177 96.8241,75.177 102.5,69.5C 102.52,71.143 101.853,72.4763 100.5,73.5C 102.833,76.1667 105.167,76.1667 107.5,73.5C 108.216,71.518 109.383,69.8513 111,68.5C 111.236,70.8113 112.069,72.8113 113.5,74.5 Z"/></g>
<g><path style="opacity:0.004" fill="#ffe5ea" d="M 117.5,76.5 C 117.5,77.8333 116.833,78.5 115.5,78.5C 115.833,77.5 116.5,76.8333 117.5,76.5 Z"/></g>
<g><path style="opacity:1" fill="#04bd62" d="M 62.5,79.5 C 64.1238,79.3601 65.2904,80.0267 66,81.5C 66.8388,80.3759 68.0055,79.7092 69.5,79.5C 73.0012,79.308 74.0012,80.6413 72.5,83.5C 72.762,84.9778 72.4287,86.3112 71.5,87.5C 68.3138,89.3975 65.6471,91.7308 63.5,94.5C 62.8826,94.3893 62.3826,94.056 62,93.5C 61.7638,91.236 61.2638,89.0693 60.5,87C 63.5963,85.2118 64.2629,82.7118 62.5,79.5 Z"/></g>
<g><path style="opacity:1" fill="#ef938e" d="M 48.5,78.5 C 46.5767,81.6032 44.41,84.6032 42,87.5C 40.871,89.1412 39.371,90.1412 37.5,90.5C 38.2066,88.8656 39.3732,87.5323 41,86.5C 41.4828,85.552 41.6495,84.552 41.5,83.5C 43.1765,82.8166 43.8432,81.4832 43.5,79.5C 44.5,79.5 45.5,79.5 46.5,79.5C 47.1667,79.1667 47.8333,78.8333 48.5,78.5 Z"/></g>
<g><path style="opacity:1" fill="#53be86" d="M 71.5,62.5 C 69.3573,68.394 65.524,73.0606 60,76.5C 58.582,80.3402 56.4153,83.6735 53.5,86.5C 52.5,86.8333 51.8333,87.5 51.5,88.5C 50.2921,89.2341 48.9587,89.5674 47.5,89.5C 54.7862,79.8796 62.7862,70.8796 71.5,62.5 Z"/></g>
<g><path style="opacity:1" fill="#fb312d" d="M 103.5,80.5 C 99.241,80.7805 97.5744,83.1138 98.5,87.5C 97.5,87.5 96.5,87.5 95.5,87.5C 95.762,88.9778 95.4287,90.3112 94.5,91.5C 91.6179,90.9555 88.9512,91.7888 86.5,94C 87.8678,95.3402 89.2011,96.6736 90.5,98C 90.1639,99.0299 89.4972,99.5299 88.5,99.5C 88.223,96.5411 86.8896,95.8744 84.5,97.5C 82.9996,97.5472 81.9996,96.8805 81.5,95.5C 83.482,94.7838 85.1487,93.6171 86.5,92C 85.5868,90.5861 85.5868,89.0861 86.5,87.5C 90.6162,85.4577 94.6162,83.1243 98.5,80.5C 100.299,79.2121 101.965,79.2121 103.5,80.5 Z"/></g>
<g><path style="opacity:0.212" fill="#fececf" d="M 24.5,78.5 C 23.8847,88.2272 28.2181,92.2272 37.5,90.5C 32.2549,93.7697 27.7549,92.7697 24,87.5C 23.1955,84.3035 23.3622,81.3035 24.5,78.5 Z"/></g>
<g><path style="opacity:1" fill="#03bf61" d="M 62.5,79.5 C 64.2629,82.7118 63.5963,85.2118 60.5,87C 61.2638,89.0693 61.7638,91.236 62,93.5C 62.3826,94.056 62.8826,94.3893 63.5,94.5C 63.5,95.5 63.5,96.5 63.5,97.5C 62.5,97.5 61.5,97.5 60.5,97.5C 60.5,98.5 60.5,99.5 60.5,100.5C 59.1667,101.167 58.1667,102.167 57.5,103.5C 51.3329,105.043 46.9996,102.71 44.5,96.5C 46.8644,93.705 49.1978,91.0383 51.5,88.5C 51.8333,87.5 52.5,86.8333 53.5,86.5C 58.014,85.9737 61.014,83.6404 62.5,79.5 Z"/></g>
<g><path style="opacity:0.498" fill="#b9c3ee" d="M 122.5,88.5 C 119.833,88.5 117.167,88.5 114.5,88.5C 115.172,87.7326 116.005,87.0659 117,86.5C 118.948,87.1094 120.782,87.776 122.5,88.5 Z"/></g>
<g><path style="opacity:0.004" fill="#fefffe" d="M -0.5,88.5 C 0.833333,89.1667 0.833333,89.1667 -0.5,88.5 Z"/></g>
<g><path style="opacity:0.906" fill="#575eb6" d="M 114.5,88.5 C 117.167,88.5 119.833,88.5 122.5,88.5C 123.5,88.8333 124.167,89.5 124.5,90.5C 124.167,90.5 123.833,90.5 123.5,90.5C 119.571,89.5877 115.571,89.5877 111.5,90.5C 111.973,89.0937 112.973,88.427 114.5,88.5 Z"/></g>
<g><path style="opacity:0.392" fill="#ffdcd8" d="M 83.5,86.5 C 83.5,86.8333 83.5,87.1667 83.5,87.5C 80.3908,91.3971 77.0574,95.0638 73.5,98.5C 75.8824,93.7524 79.2157,89.7524 83.5,86.5 Z"/></g>
<g><path style="opacity:0.004" fill="#fefffe" d="M 143.5,89.5 C 144.833,90.1667 144.833,90.1667 143.5,89.5 Z"/></g>
<g><path style="opacity:1" fill="#f83436" d="M 103.5,80.5 C 105.099,80.2322 106.432,80.5655 107.5,81.5C 107.007,83.8056 106.674,86.139 106.5,88.5C 106.167,89.5 105.5,90.1667 104.5,90.5C 102.801,90.3398 101.134,90.5065 99.5,91C 100.38,92.3561 100.714,93.8561 100.5,95.5C 97.6265,96.0634 94.9598,97.0634 92.5,98.5C 92.5,100.167 92.5,101.833 92.5,103.5C 91.1467,105.193 89.48,106.526 87.5,107.5C 86.4458,104.794 87.4458,102.794 90.5,101.5C 89.7573,100.818 89.0906,100.151 88.5,99.5C 89.4972,99.5299 90.1639,99.0299 90.5,98C 89.2011,96.6736 87.8678,95.3402 86.5,94C 88.9512,91.7888 91.6179,90.9555 94.5,91.5C 95.4287,90.3112 95.762,88.9778 95.5,87.5C 96.5,87.5 97.5,87.5 98.5,87.5C 97.5744,83.1138 99.241,80.7805 103.5,80.5 Z"/></g>
<g><path style="opacity:1" fill="#ec6b5b" d="M 104.5,90.5 C 103.876,92.754 102.543,94.4206 100.5,95.5C 100.714,93.8561 100.38,92.3561 99.5,91C 101.134,90.5065 102.801,90.3398 104.5,90.5 Z"/></g>
<g><path style="opacity:0.431" fill="#9ee7c8" d="M 47.5,89.5 C 46.5806,92.0892 44.914,94.0892 42.5,95.5C 43.4194,92.9108 45.086,90.9108 47.5,89.5 Z"/></g>
<g><path style="opacity:0.004" fill="#fefffe" d="M 140.5,92.5 C 141.833,93.1667 141.833,93.1667 140.5,92.5 Z"/></g>
<g><path style="opacity:1" fill="#42bb7c" d="M 79.5,80.5 C 73.8333,87.1667 68.1667,93.8333 62.5,100.5C 61.8333,100.5 61.1667,100.5 60.5,100.5C 60.5,99.5 60.5,98.5 60.5,97.5C 61.5,97.5 62.5,97.5 63.5,97.5C 63.5,96.5 63.5,95.5 63.5,94.5C 65.6471,91.7308 68.3138,89.3975 71.5,87.5C 72.4287,86.3112 72.762,84.9778 72.5,83.5C 73.5,83.5 74.5,83.5 75.5,83.5C 75.5,82.5 75.5,81.5 75.5,80.5C 76.8333,80.5 78.1667,80.5 79.5,80.5 Z"/></g>
<g><path style="opacity:0.004" fill="#fefffe" d="M 128.5,93.5 C 129.833,94.1667 129.833,94.1667 128.5,93.5 Z"/></g>
<g><path style="opacity:1" fill="#fa3130" d="M 86.5,87.5 C 85.5868,89.0861 85.5868,90.5861 86.5,92C 85.1487,93.6171 83.482,94.7838 81.5,95.5C 81.9996,96.8805 82.9996,97.5472 84.5,97.5C 86.8896,95.8744 88.223,96.5411 88.5,99.5C 89.0906,100.151 89.7573,100.818 90.5,101.5C 87.4458,102.794 86.4458,104.794 87.5,107.5C 85.8002,107.626 84.3002,108.293 83,109.5C 81.8288,108.66 80.6621,107.827 79.5,107C 82.3562,105.571 82.8562,103.737 81,101.5C 78.3034,105.129 75.8034,108.963 73.5,113C 71.9242,113.388 70.5909,112.888 69.5,111.5C 70.7914,110.473 70.7914,109.473 69.5,108.5C 73.9586,106.965 77.1252,103.965 79,99.5C 79.49,98.2068 79.6567,96.8734 79.5,95.5C 81.0941,92.2358 83.4275,89.5691 86.5,87.5 Z"/></g>
<g><path style="opacity:0.984" fill="#5a5fbd" d="M 111.5,90.5 C 112.244,93.9496 110.91,95.6162 107.5,95.5C 108.484,93.5201 109.817,91.8534 111.5,90.5 Z"/></g>
<g><path style="opacity:1" fill="#253dde" d="M 123.5,90.5 C 123.552,92.9029 123.219,95.2362 122.5,97.5C 116.729,96.2178 116.396,94.3845 121.5,92C 116.212,90.2203 113.379,92.0536 113,97.5C 111.855,98.6364 110.688,99.6364 109.5,100.5C 109.5,103.167 109.5,105.833 109.5,108.5C 107.139,108.674 104.806,109.007 102.5,109.5C 102.888,107.315 103.888,105.482 105.5,104C 104.824,102.317 103.824,102.15 102.5,103.5C 103.742,101.75 105.242,100.083 107,98.5C 107.483,97.552 107.649,96.552 107.5,95.5C 110.91,95.6162 112.244,93.9496 111.5,90.5C 115.571,89.5877 119.571,89.5877 123.5,90.5 Z"/></g>
<g><path style="opacity:1" fill="#233ce4" d="M 122.5,97.5 C 123.451,98.9187 123.784,100.585 123.5,102.5C 122.167,102.5 120.833,102.5 119.5,102.5C 119.5,104.167 119.5,105.833 119.5,107.5C 117.005,108.199 114.672,109.199 112.5,110.5C 112.326,112.861 111.993,115.194 111.5,117.5C 110.022,117.238 108.689,117.571 107.5,118.5C 107.058,119.739 106.391,120.739 105.5,121.5C 105.421,120.07 105.754,118.736 106.5,117.5C 105.737,116.281 104.737,115.281 103.5,114.5C 103.833,113.833 104.167,113.167 104.5,112.5C 109.693,112.524 112.026,110.024 111.5,105C 111.431,103.014 110.765,101.514 109.5,100.5C 110.688,99.6364 111.855,98.6364 113,97.5C 113.379,92.0536 116.212,90.2203 121.5,92C 116.396,94.3845 116.729,96.2178 122.5,97.5 Z"/></g>
<g><path style="opacity:0.918" fill="#7b7dc9" d="M 125.5,91.5 C 126.898,92.7767 127.564,94.4434 127.5,96.5C 127.445,99.3598 126.445,101.693 124.5,103.5C 125.021,99.5191 125.354,95.5191 125.5,91.5 Z"/></g>
<g><path style="opacity:1" fill="#eb6159" d="M 100.5,95.5 C 98.6281,98.5819 96.2948,101.249 93.5,103.5C 93.1667,103.5 92.8333,103.5 92.5,103.5C 92.5,101.833 92.5,100.167 92.5,98.5C 94.9598,97.0634 97.6265,96.0634 100.5,95.5 Z"/></g>
<g><path style="opacity:1" fill="#5b60c5" d="M 107.5,95.5 C 107.649,96.552 107.483,97.552 107,98.5C 105.242,100.083 103.742,101.75 102.5,103.5C 99.4715,106.859 96.4715,110.192 93.5,113.5C 93.5,113.167 93.5,112.833 93.5,112.5C 93.7086,111.078 94.2086,109.745 95,108.5C 98.7219,103.708 102.889,99.3746 107.5,95.5 Z"/></g>
<g><path style="opacity:1" fill="#1ab668" d="M 51.5,88.5 C 49.1978,91.0383 46.8644,93.705 44.5,96.5C 46.9996,102.71 51.3329,105.043 57.5,103.5C 57.0334,106.297 55.3667,107.631 52.5,107.5C 52.5,108.833 52.5,110.167 52.5,111.5C 50.4131,112.585 49.0798,114.251 48.5,116.5C 48.5,117.167 48.1667,117.5 47.5,117.5C 47.1459,114.579 48.1459,112.246 50.5,110.5C 48.2972,107.799 46.2972,104.966 44.5,102C 42.8333,101.333 41.1667,101.333 39.5,102C 36.9638,104.705 34.2971,107.205 31.5,109.5C 31.5,108.833 31.5,108.167 31.5,107.5C 35.8976,104.105 39.5643,100.105 42.5,95.5C 44.914,94.0892 46.5806,92.0892 47.5,89.5C 48.9587,89.5674 50.2921,89.2341 51.5,88.5 Z"/></g>
<g><path style="opacity:0.671" fill="#fdbbbd" d="M 73.5,98.5 C 72.9202,100.749 71.5869,102.415 69.5,103.5C 70.0798,101.251 71.4131,99.5846 73.5,98.5 Z"/></g>
<g><path style="opacity:0.004" fill="#fefffe" d="M 5.5,102.5 C 6.83333,103.167 6.83333,103.167 5.5,102.5 Z"/></g>
<g><path style="opacity:0.004" fill="#fefffe" d="M 23.5,102.5 C 24.8333,103.167 24.8333,103.167 23.5,102.5 Z"/></g>
<g><path style="opacity:0.451" fill="#9eeac8" d="M 42.5,95.5 C 39.5643,100.105 35.8976,104.105 31.5,107.5C 34.4357,102.895 38.1024,98.8947 42.5,95.5 Z"/></g>
<g><path style="opacity:1" fill="#454dc8" d="M 123.5,90.5 C 123.833,90.5 124.167,90.5 124.5,90.5C 125.167,90.5 125.5,90.8333 125.5,91.5C 125.354,95.5191 125.021,99.5191 124.5,103.5C 124.5,104.167 124.167,104.5 123.5,104.5C 122.5,104.833 121.833,105.5 121.5,106.5C 121.5,107.167 121.167,107.5 120.5,107.5C 120.167,107.5 119.833,107.5 119.5,107.5C 119.5,105.833 119.5,104.167 119.5,102.5C 120.833,102.5 122.167,102.5 123.5,102.5C 123.784,100.585 123.451,98.9187 122.5,97.5C 123.219,95.2362 123.552,92.9029 123.5,90.5 Z"/></g>
<g><path style="opacity:1" fill="#05bf61" d="M 47.5,117.5 C 47.1667,117.5 46.8333,117.5 46.5,117.5C 43.9036,119.238 40.9036,120.238 37.5,120.5C 32.8386,121.173 30.1719,119.173 29.5,114.5C 30.1869,112.823 30.8535,111.156 31.5,109.5C 34.2971,107.205 36.9638,104.705 39.5,102C 41.1667,101.333 42.8333,101.333 44.5,102C 46.2972,104.966 48.2972,107.799 50.5,110.5C 48.1459,112.246 47.1459,114.579 47.5,117.5 Z"/></g>
<g><path style="opacity:1" fill="#d84a4e" d="M 105.5,64.5 C 105.443,65.609 105.11,66.609 104.5,67.5C 103.5,67.8333 102.833,68.5 102.5,69.5C 96.8241,75.177 91.4908,81.177 86.5,87.5C 83.4275,89.5691 81.0941,92.2358 79.5,95.5C 75.8604,99.8062 71.8604,103.806 67.5,107.5C 67.5,106.833 67.5,106.167 67.5,105.5C 67.8333,104.5 68.5,103.833 69.5,103.5C 71.5869,102.415 72.9202,100.749 73.5,98.5C 77.0574,95.0638 80.3908,91.3971 83.5,87.5C 90.8333,79.8333 98.1667,72.1667 105.5,64.5 Z"/></g>
<g><path style="opacity:1" fill="#ef3939" d="M 79.5,95.5 C 79.6567,96.8734 79.49,98.2068 79,99.5C 77.1252,103.965 73.9586,106.965 69.5,108.5C 68.7304,110.299 67.397,111.632 65.5,112.5C 64.5481,114.045 64.2148,115.712 64.5,117.5C 66.288,117.215 67.9547,117.548 69.5,118.5C 68.7542,119.736 68.4208,121.07 68.5,122.5C 71.2372,122.599 73.9039,122.265 76.5,121.5C 76.1667,122.167 75.8333,122.833 75.5,123.5C 71.5559,123.887 67.8892,123.22 64.5,121.5C 63.6561,117.901 63.3227,114.234 63.5,110.5C 64.8333,109.5 66.1667,108.5 67.5,107.5C 71.8604,103.806 75.8604,99.8062 79.5,95.5 Z"/></g>
<g><path style="opacity:0.004" fill="#fefffe" d="M 92.5,105.5 C 93.8333,106.167 93.8333,106.167 92.5,105.5 Z"/></g>
<g><path style="opacity:0.004" fill="#e6eeff" d="M 123.5,104.5 C 123.5,105.833 122.833,106.5 121.5,106.5C 121.833,105.5 122.5,104.833 123.5,104.5 Z"/></g>
<g><path style="opacity:1" fill="#71cfa2" d="M 60.5,100.5 C 61.1667,100.5 61.8333,100.5 62.5,100.5C 59.8579,104.775 56.5246,108.442 52.5,111.5C 52.5,110.167 52.5,108.833 52.5,107.5C 55.3667,107.631 57.0334,106.297 57.5,103.5C 58.1667,102.167 59.1667,101.167 60.5,100.5 Z"/></g>
<g><path style="opacity:0.502" fill="#f9b3b0" d="M 67.5,105.5 C 67.5,106.167 67.5,106.833 67.5,107.5C 66.1667,108.5 64.8333,109.5 63.5,110.5C 64.0798,108.251 65.4131,106.585 67.5,105.5 Z"/></g>
<g><path style="opacity:0.757" fill="#e78c86" d="M 92.5,103.5 C 92.8333,103.5 93.1667,103.5 93.5,103.5C 93.1667,104.167 92.8333,104.833 92.5,105.5C 91.194,107.473 89.5273,109.139 87.5,110.5C 87.5,109.5 87.5,108.5 87.5,107.5C 89.48,106.526 91.1467,105.193 92.5,103.5 Z"/></g>
<g><path style="opacity:0.004" fill="#d8dcf6" d="M 119.5,107.5 C 119.833,107.5 120.167,107.5 120.5,107.5C 120.573,109.027 119.906,110.027 118.5,110.5C 118.557,109.391 118.89,108.391 119.5,107.5 Z"/></g>
<g><path style="opacity:1" fill="#f83333" d="M 87.5,107.5 C 87.5,108.5 87.5,109.5 87.5,110.5C 84.0677,112.926 81.4011,115.926 79.5,119.5C 78.5,120.167 77.5,120.833 76.5,121.5C 73.9039,122.265 71.2372,122.599 68.5,122.5C 68.4208,121.07 68.7542,119.736 69.5,118.5C 67.9547,117.548 66.288,117.215 64.5,117.5C 64.2148,115.712 64.5481,114.045 65.5,112.5C 67.397,111.632 68.7304,110.299 69.5,108.5C 70.7914,109.473 70.7914,110.473 69.5,111.5C 70.5909,112.888 71.9242,113.388 73.5,113C 75.8034,108.963 78.3034,105.129 81,101.5C 82.8562,103.737 82.3562,105.571 79.5,107C 80.6621,107.827 81.8288,108.66 83,109.5C 84.3002,108.293 85.8002,107.626 87.5,107.5 Z"/></g>
<g><path style="opacity:1" fill="#263be4" d="M 109.5,100.5 C 110.765,101.514 111.431,103.014 111.5,105C 112.026,110.024 109.693,112.524 104.5,112.5C 104.167,113.167 103.833,113.833 103.5,114.5C 104.737,115.281 105.737,116.281 106.5,117.5C 105.754,118.736 105.421,120.07 105.5,121.5C 104.726,122.147 103.726,122.48 102.5,122.5C 99.1326,121.387 96.1326,119.721 93.5,117.5C 93.5,116.167 93.5,114.833 93.5,113.5C 96.4715,110.192 99.4715,106.859 102.5,103.5C 103.824,102.15 104.824,102.317 105.5,104C 103.888,105.482 102.888,107.315 102.5,109.5C 104.806,109.007 107.139,108.674 109.5,108.5C 109.5,105.833 109.5,103.167 109.5,100.5 Z"/></g>
<g><path style="opacity:1" fill="#5256cc" d="M 119.5,107.5 C 118.89,108.391 118.557,109.391 118.5,110.5C 116.5,113.167 114.167,115.5 111.5,117.5C 111.993,115.194 112.326,112.861 112.5,110.5C 114.672,109.199 117.005,108.199 119.5,107.5 Z"/></g>
<g><path style="opacity:0.004" fill="#fefffe" d="M 23.5,113.5 C 24.8333,114.167 24.8333,114.167 23.5,113.5 Z"/></g>
<g><path style="opacity:0.035" fill="#b5f6d4" d="M 52.5,111.5 C 51.9202,113.749 50.5869,115.415 48.5,116.5C 49.0798,114.251 50.4131,112.585 52.5,111.5 Z"/></g>
<g><path style="opacity:0.729" fill="#e19d9d" d="M 63.5,110.5 C 63.3227,114.234 63.6561,117.901 64.5,121.5C 63.8826,121.389 63.3826,121.056 63,120.5C 62.6271,118.302 62.1271,116.135 61.5,114C 61.8082,112.541 62.4749,111.374 63.5,110.5 Z"/></g>
<g><path style="opacity:0.004" fill="#fefffe" d="M 128.5,113.5 C 129.833,114.167 129.833,114.167 128.5,113.5 Z"/></g>
<g><path style="opacity:0.18" fill="#c1f9e1" d="M 31.5,107.5 C 31.5,108.167 31.5,108.833 31.5,109.5C 29.124,110.512 28.124,112.345 28.5,115C 29.1316,118.141 30.4649,120.974 32.5,123.5C 27.3386,120.518 25.8386,116.185 28,110.5C 29.0391,109.29 30.2058,108.29 31.5,107.5 Z"/></g>
<g><path style="opacity:0.306" fill="#cbd5f9" d="M 93.5,112.5 C 93.5,112.833 93.5,113.167 93.5,113.5C 93.5,114.833 93.5,116.167 93.5,117.5C 93.5,118.167 93.5,118.833 93.5,119.5C 91.1093,117.236 91.1093,114.902 93.5,112.5 Z"/></g>
<g><path style="opacity:0.753" fill="#ed9d98" d="M 87.5,110.5 C 85.5698,114.1 82.9031,117.1 79.5,119.5C 81.4011,115.926 84.0677,112.926 87.5,110.5 Z"/></g>
<g><path style="opacity:1" fill="#28b06e" d="M 31.5,109.5 C 30.8535,111.156 30.1869,112.823 29.5,114.5C 30.1719,119.173 32.8386,121.173 37.5,120.5C 40.9036,120.238 43.9036,119.238 46.5,117.5C 43.3198,122.752 38.6531,124.752 32.5,123.5C 30.4649,120.974 29.1316,118.141 28.5,115C 28.124,112.345 29.124,110.512 31.5,109.5 Z"/></g>
<g><path style="opacity:0.047" fill="#fdcbcd" d="M 79.5,119.5 C 79.1667,121.833 77.8333,123.167 75.5,123.5C 75.8333,122.833 76.1667,122.167 76.5,121.5C 77.5,120.833 78.5,120.167 79.5,119.5 Z"/></g>
<g><path style="opacity:0.427" fill="#9fa7ea" d="M 95.5,121.5 C 97.0269,121.427 98.0269,122.094 98.5,123.5C 96.9731,123.573 95.9731,122.906 95.5,121.5 Z"/></g>
<g><path style="opacity:0.867" fill="#595abf" d="M 93.5,117.5 C 96.1326,119.721 99.1326,121.387 102.5,122.5C 103.726,122.48 104.726,122.147 105.5,121.5C 106.391,120.739 107.058,119.739 107.5,118.5C 108.689,117.571 110.022,117.238 111.5,117.5C 108.784,123.025 104.45,125.025 98.5,123.5C 98.0269,122.094 97.0269,121.427 95.5,121.5C 94.5,121.167 93.8333,120.5 93.5,119.5C 93.5,118.833 93.5,118.167 93.5,117.5 Z"/></g>
<g><path style="opacity:0.004" fill="#fefffe" d="M 110.5,122.5 C 111.833,123.167 111.833,123.167 110.5,122.5 Z"/></g>
<g><path style="opacity:0.157" fill="#bcf4d8" d="M 46.5,117.5 C 46.8333,117.5 47.1667,117.5 47.5,117.5C 44.1153,124.239 39.1153,126.239 32.5,123.5C 38.6531,124.752 43.3198,122.752 46.5,117.5 Z"/></g>
<g><path style="opacity:0.39" fill="#fcc9c6" d="M 64.5,121.5 C 67.8892,123.22 71.5559,123.887 75.5,123.5C 72.7735,125.87 69.7735,126.037 66.5,124C 65.6195,123.292 64.9528,122.458 64.5,121.5 Z"/></g>
<g><path style="opacity:0.004" fill="#fefffe" d="M 23.5,128.5 C 24.8333,129.167 24.8333,129.167 23.5,128.5 Z"/></g>
<g><path style="opacity:0.004" fill="#fefffe" d="M 29.5,129.5 C 30.8333,130.167 30.8333,130.167 29.5,129.5 Z"/></g>
<g><path style="opacity:0.004" fill="#fefffe" d="M 11.5,131.5 C 12.8333,132.167 12.8333,132.167 11.5,131.5 Z"/></g>
<g><path style="opacity:0.004" fill="#fefffe" d="M -0.5,135.5 C 0.833333,136.167 0.833333,136.167 -0.5,135.5 Z"/></g>
<g><path style="opacity:0.004" fill="#fefffe" d="M 89.5,139.5 C 90.8333,140.167 90.8333,140.167 89.5,139.5 Z"/></g>
<g><path style="opacity:0.004" fill="#fefffe" d="M 44.5,144.5 C 45.8333,145.167 45.8333,145.167 44.5,144.5 Z"/></g>
<g><path style="opacity:0.004" fill="#fefffe" d="M 143.5,147.5 C 144.833,148.167 144.833,148.167 143.5,147.5 Z"/></g>
</svg>
